<mxfile host="app.diagrams.net" modified="2024-06-20T05:41:07.474Z" agent="Mozilla/5.0 (Windows NT 10.0; Win64; x64) AppleWebKit/537.36 (KHTML, like Gecko) Chrome/125.0.0.0 Safari/537.36 Edg/125.0.0.0" etag="NKic46LI-rsDPPu6w1s9" version="24.4.9" type="github">
  <diagram name="第 1 页" id="yYZ-SPm4oYmW-MQHjaNw">
    <mxGraphModel dx="906" dy="605" grid="0" gridSize="10" guides="1" tooltips="1" connect="1" arrows="1" fold="1" page="1" pageScale="1" pageWidth="1169" pageHeight="827" math="0" shadow="0">
      <root>
        <mxCell id="0" />
        <mxCell id="1" parent="0" />
        <mxCell id="1xG8v3itKe0TzVxBgz0c-1" value="" style="whiteSpace=wrap;html=1;" parent="1" vertex="1">
          <mxGeometry x="332" y="142" width="146" height="184" as="geometry" />
        </mxCell>
        <mxCell id="1xG8v3itKe0TzVxBgz0c-17" value="" style="whiteSpace=wrap;html=1;" parent="1" vertex="1">
          <mxGeometry x="199" y="183" width="67" height="109" as="geometry" />
        </mxCell>
        <mxCell id="1xG8v3itKe0TzVxBgz0c-18" value="len=n&lt;div&gt;……&lt;/div&gt;&lt;div&gt;head&lt;/div&gt;&lt;div&gt;data&lt;/div&gt;&lt;div&gt;tail&lt;/div&gt;&lt;div&gt;end&lt;/div&gt;" style="text;html=1;align=center;verticalAlign=middle;whiteSpace=wrap;rounded=0;" parent="1" vertex="1">
          <mxGeometry x="202.5" y="222.5" width="60" height="30" as="geometry" />
        </mxCell>
        <mxCell id="1xG8v3itKe0TzVxBgz0c-19" value="" style="endArrow=classic;html=1;rounded=0;" parent="1" edge="1">
          <mxGeometry width="50" height="50" relative="1" as="geometry">
            <mxPoint x="245" y="230" as="sourcePoint" />
            <mxPoint x="331" y="142" as="targetPoint" />
          </mxGeometry>
        </mxCell>
        <mxCell id="1xG8v3itKe0TzVxBgz0c-20" value="" style="endArrow=classic;html=1;rounded=0;" parent="1" edge="1">
          <mxGeometry width="50" height="50" relative="1" as="geometry">
            <mxPoint x="244" y="244" as="sourcePoint" />
            <mxPoint x="331" y="169" as="targetPoint" />
          </mxGeometry>
        </mxCell>
        <mxCell id="1xG8v3itKe0TzVxBgz0c-24" value="" style="endArrow=classic;html=1;rounded=0;" parent="1" edge="1">
          <mxGeometry width="50" height="50" relative="1" as="geometry">
            <mxPoint x="244" y="275" as="sourcePoint" />
            <mxPoint x="331" y="326" as="targetPoint" />
          </mxGeometry>
        </mxCell>
        <mxCell id="1xG8v3itKe0TzVxBgz0c-25" value="" style="shape=curlyBracket;whiteSpace=wrap;html=1;rounded=1;flipH=1;labelPosition=right;verticalLabelPosition=middle;align=left;verticalAlign=middle;" parent="1" vertex="1">
          <mxGeometry x="478" y="169" width="20" height="157" as="geometry" />
        </mxCell>
        <mxCell id="1xG8v3itKe0TzVxBgz0c-26" value="n" style="text;html=1;align=center;verticalAlign=middle;whiteSpace=wrap;rounded=0;" parent="1" vertex="1">
          <mxGeometry x="478" y="232.5" width="60" height="30" as="geometry" />
        </mxCell>
        <mxCell id="1xG8v3itKe0TzVxBgz0c-27" value="struct sk_buff" style="text;html=1;align=center;verticalAlign=middle;whiteSpace=wrap;rounded=0;" parent="1" vertex="1">
          <mxGeometry x="190.5" y="157" width="84" height="30" as="geometry" />
        </mxCell>
        <mxCell id="1xG8v3itKe0TzVxBgz0c-28" value="" style="endArrow=none;html=1;rounded=0;entryX=1;entryY=0.75;entryDx=0;entryDy=0;arcSize=0;exitX=0;exitY=0.75;exitDx=0;exitDy=0;" parent="1" edge="1">
          <mxGeometry width="50" height="50" relative="1" as="geometry">
            <mxPoint x="332" y="243" as="sourcePoint" />
            <mxPoint x="478" y="243" as="targetPoint" />
          </mxGeometry>
        </mxCell>
        <mxCell id="1xG8v3itKe0TzVxBgz0c-29" value="" style="endArrow=none;html=1;rounded=0;entryX=1;entryY=0.75;entryDx=0;entryDy=0;arcSize=0;exitX=0;exitY=0.75;exitDx=0;exitDy=0;" parent="1" edge="1">
          <mxGeometry width="50" height="50" relative="1" as="geometry">
            <mxPoint x="332" y="195" as="sourcePoint" />
            <mxPoint x="478" y="195" as="targetPoint" />
          </mxGeometry>
        </mxCell>
        <mxCell id="1xG8v3itKe0TzVxBgz0c-34" value="" style="endArrow=classic;html=1;rounded=0;entryX=0;entryY=1;entryDx=0;entryDy=0;" parent="1" target="1xG8v3itKe0TzVxBgz0c-1" edge="1">
          <mxGeometry width="50" height="50" relative="1" as="geometry">
            <mxPoint x="241" y="262" as="sourcePoint" />
            <mxPoint x="330" y="323" as="targetPoint" />
          </mxGeometry>
        </mxCell>
        <mxCell id="1xG8v3itKe0TzVxBgz0c-35" value="" style="endArrow=none;html=1;rounded=0;entryX=1;entryY=0.75;entryDx=0;entryDy=0;arcSize=0;exitX=0;exitY=0.75;exitDx=0;exitDy=0;" parent="1" edge="1">
          <mxGeometry width="50" height="50" relative="1" as="geometry">
            <mxPoint x="332" y="169" as="sourcePoint" />
            <mxPoint x="478" y="169" as="targetPoint" />
          </mxGeometry>
        </mxCell>
        <mxCell id="1xG8v3itKe0TzVxBgz0c-36" value="" style="endArrow=none;html=1;rounded=0;entryX=1;entryY=0.75;entryDx=0;entryDy=0;arcSize=0;exitX=0;exitY=0.75;exitDx=0;exitDy=0;" parent="1" edge="1">
          <mxGeometry width="50" height="50" relative="1" as="geometry">
            <mxPoint x="332" y="218.99999999999997" as="sourcePoint" />
            <mxPoint x="478" y="218.99999999999997" as="targetPoint" />
          </mxGeometry>
        </mxCell>
        <mxCell id="1xG8v3itKe0TzVxBgz0c-37" value="以太网协议头" style="text;html=1;align=center;verticalAlign=middle;whiteSpace=wrap;rounded=0;" parent="1" vertex="1">
          <mxGeometry x="372" y="168.5" width="77" height="30" as="geometry" />
        </mxCell>
        <mxCell id="1xG8v3itKe0TzVxBgz0c-38" value="IP协议头" style="text;html=1;align=center;verticalAlign=middle;whiteSpace=wrap;rounded=0;" parent="1" vertex="1">
          <mxGeometry x="374" y="192.5" width="77" height="30" as="geometry" />
        </mxCell>
        <mxCell id="1xG8v3itKe0TzVxBgz0c-39" value="TCP协议头" style="text;html=1;align=center;verticalAlign=middle;whiteSpace=wrap;rounded=0;" parent="1" vertex="1">
          <mxGeometry x="374" y="216" width="77" height="30" as="geometry" />
        </mxCell>
        <mxCell id="1xG8v3itKe0TzVxBgz0c-40" value="TCP净荷" style="text;html=1;align=center;verticalAlign=middle;whiteSpace=wrap;rounded=0;" parent="1" vertex="1">
          <mxGeometry x="372" y="275" width="77" height="30" as="geometry" />
        </mxCell>
        <mxCell id="3axxUkgNKy4wt6qZ3K-I-1" value="" style="rounded=0;whiteSpace=wrap;html=1;" vertex="1" parent="1">
          <mxGeometry x="657" y="335" width="162" height="76" as="geometry" />
        </mxCell>
        <mxCell id="3axxUkgNKy4wt6qZ3K-I-2" value="" style="endArrow=none;html=1;rounded=0;entryX=1;entryY=0.25;entryDx=0;entryDy=0;exitX=0;exitY=0.25;exitDx=0;exitDy=0;" edge="1" parent="1">
          <mxGeometry width="50" height="50" relative="1" as="geometry">
            <mxPoint x="657" y="361" as="sourcePoint" />
            <mxPoint x="819" y="361" as="targetPoint" />
          </mxGeometry>
        </mxCell>
        <mxCell id="3axxUkgNKy4wt6qZ3K-I-3" value="" style="endArrow=none;html=1;rounded=0;entryX=1;entryY=0.25;entryDx=0;entryDy=0;exitX=0;exitY=0.25;exitDx=0;exitDy=0;" edge="1" parent="1">
          <mxGeometry width="50" height="50" relative="1" as="geometry">
            <mxPoint x="657" y="395" as="sourcePoint" />
            <mxPoint x="819" y="395" as="targetPoint" />
          </mxGeometry>
        </mxCell>
        <mxCell id="3axxUkgNKy4wt6qZ3K-I-4" value="cdev" style="text;html=1;align=center;verticalAlign=middle;whiteSpace=wrap;rounded=0;" vertex="1" parent="1">
          <mxGeometry x="708" y="335" width="60" height="30" as="geometry" />
        </mxCell>
        <mxCell id="3axxUkgNKy4wt6qZ3K-I-5" value="- file_operations : ops" style="text;html=1;align=center;verticalAlign=middle;whiteSpace=wrap;rounded=0;" vertex="1" parent="1">
          <mxGeometry x="678.5" y="365" width="119" height="27" as="geometry" />
        </mxCell>
        <mxCell id="3axxUkgNKy4wt6qZ3K-I-6" value="" style="rounded=0;whiteSpace=wrap;html=1;" vertex="1" parent="1">
          <mxGeometry x="657" y="437" width="162" height="76" as="geometry" />
        </mxCell>
        <mxCell id="3axxUkgNKy4wt6qZ3K-I-7" value="" style="endArrow=none;html=1;rounded=0;entryX=1;entryY=0.25;entryDx=0;entryDy=0;exitX=0;exitY=0.25;exitDx=0;exitDy=0;" edge="1" parent="1">
          <mxGeometry width="50" height="50" relative="1" as="geometry">
            <mxPoint x="657" y="463" as="sourcePoint" />
            <mxPoint x="819" y="463" as="targetPoint" />
          </mxGeometry>
        </mxCell>
        <mxCell id="3axxUkgNKy4wt6qZ3K-I-8" value="" style="endArrow=none;html=1;rounded=0;entryX=1;entryY=0.25;entryDx=0;entryDy=0;exitX=0;exitY=0.25;exitDx=0;exitDy=0;" edge="1" parent="1">
          <mxGeometry width="50" height="50" relative="1" as="geometry">
            <mxPoint x="657" y="497" as="sourcePoint" />
            <mxPoint x="819" y="497" as="targetPoint" />
          </mxGeometry>
        </mxCell>
        <mxCell id="3axxUkgNKy4wt6qZ3K-I-18" style="edgeStyle=orthogonalEdgeStyle;rounded=0;orthogonalLoop=1;jettySize=auto;html=1;exitX=0.5;exitY=0;exitDx=0;exitDy=0;entryX=0.5;entryY=1;entryDx=0;entryDy=0;endArrow=block;endFill=0;" edge="1" parent="1" source="3axxUkgNKy4wt6qZ3K-I-9" target="3axxUkgNKy4wt6qZ3K-I-1">
          <mxGeometry relative="1" as="geometry" />
        </mxCell>
        <mxCell id="3axxUkgNKy4wt6qZ3K-I-9" value="tty_driver" style="text;html=1;align=center;verticalAlign=middle;whiteSpace=wrap;rounded=0;" vertex="1" parent="1">
          <mxGeometry x="708" y="437" width="60" height="30" as="geometry" />
        </mxCell>
        <mxCell id="3axxUkgNKy4wt6qZ3K-I-10" value="- tty_operations : ops" style="text;html=1;align=center;verticalAlign=middle;whiteSpace=wrap;rounded=0;" vertex="1" parent="1">
          <mxGeometry x="678.5" y="467" width="119" height="27" as="geometry" />
        </mxCell>
        <mxCell id="3axxUkgNKy4wt6qZ3K-I-11" value="" style="rounded=0;whiteSpace=wrap;html=1;" vertex="1" parent="1">
          <mxGeometry x="657" y="539" width="162" height="76" as="geometry" />
        </mxCell>
        <mxCell id="3axxUkgNKy4wt6qZ3K-I-12" value="" style="endArrow=none;html=1;rounded=0;entryX=1;entryY=0.25;entryDx=0;entryDy=0;exitX=0;exitY=0.25;exitDx=0;exitDy=0;" edge="1" parent="1">
          <mxGeometry width="50" height="50" relative="1" as="geometry">
            <mxPoint x="657" y="565" as="sourcePoint" />
            <mxPoint x="819" y="565" as="targetPoint" />
          </mxGeometry>
        </mxCell>
        <mxCell id="3axxUkgNKy4wt6qZ3K-I-13" value="" style="endArrow=none;html=1;rounded=0;entryX=1;entryY=0.25;entryDx=0;entryDy=0;exitX=0;exitY=0.25;exitDx=0;exitDy=0;" edge="1" parent="1">
          <mxGeometry width="50" height="50" relative="1" as="geometry">
            <mxPoint x="657" y="599" as="sourcePoint" />
            <mxPoint x="819" y="599" as="targetPoint" />
          </mxGeometry>
        </mxCell>
        <mxCell id="3axxUkgNKy4wt6qZ3K-I-17" style="edgeStyle=orthogonalEdgeStyle;rounded=0;orthogonalLoop=1;jettySize=auto;html=1;exitX=0.5;exitY=0;exitDx=0;exitDy=0;entryX=0.5;entryY=1;entryDx=0;entryDy=0;endArrow=block;endFill=0;" edge="1" parent="1" source="3axxUkgNKy4wt6qZ3K-I-14" target="3axxUkgNKy4wt6qZ3K-I-6">
          <mxGeometry relative="1" as="geometry" />
        </mxCell>
        <mxCell id="3axxUkgNKy4wt6qZ3K-I-14" value="uart_driver" style="text;html=1;align=center;verticalAlign=middle;whiteSpace=wrap;rounded=0;" vertex="1" parent="1">
          <mxGeometry x="708" y="539" width="60" height="30" as="geometry" />
        </mxCell>
        <mxCell id="3axxUkgNKy4wt6qZ3K-I-15" value="- uart_ops : ops" style="text;html=1;align=center;verticalAlign=middle;whiteSpace=wrap;rounded=0;" vertex="1" parent="1">
          <mxGeometry x="678.5" y="569" width="119" height="27" as="geometry" />
        </mxCell>
        <mxCell id="3axxUkgNKy4wt6qZ3K-I-19" value="A类设备的核心层" style="rounded=0;whiteSpace=wrap;html=1;" vertex="1" parent="1">
          <mxGeometry x="218" y="377" width="115" height="39" as="geometry" />
        </mxCell>
        <mxCell id="3axxUkgNKy4wt6qZ3K-I-36" style="rounded=0;orthogonalLoop=1;jettySize=auto;html=1;exitX=0.5;exitY=0;exitDx=0;exitDy=0;entryX=0.25;entryY=1;entryDx=0;entryDy=0;" edge="1" parent="1" source="3axxUkgNKy4wt6qZ3K-I-20" target="3axxUkgNKy4wt6qZ3K-I-19">
          <mxGeometry relative="1" as="geometry" />
        </mxCell>
        <mxCell id="3axxUkgNKy4wt6qZ3K-I-20" value="A类设备实例1" style="rounded=0;whiteSpace=wrap;html=1;" vertex="1" parent="1">
          <mxGeometry x="124" y="437" width="90" height="36" as="geometry" />
        </mxCell>
        <mxCell id="3axxUkgNKy4wt6qZ3K-I-37" style="edgeStyle=orthogonalEdgeStyle;rounded=0;orthogonalLoop=1;jettySize=auto;html=1;exitX=0.5;exitY=0;exitDx=0;exitDy=0;" edge="1" parent="1" source="3axxUkgNKy4wt6qZ3K-I-21" target="3axxUkgNKy4wt6qZ3K-I-19">
          <mxGeometry relative="1" as="geometry" />
        </mxCell>
        <mxCell id="3axxUkgNKy4wt6qZ3K-I-21" value="A类设备实例2" style="rounded=0;whiteSpace=wrap;html=1;" vertex="1" parent="1">
          <mxGeometry x="230.5" y="437" width="90" height="36" as="geometry" />
        </mxCell>
        <mxCell id="3axxUkgNKy4wt6qZ3K-I-38" style="rounded=0;orthogonalLoop=1;jettySize=auto;html=1;exitX=0.5;exitY=0;exitDx=0;exitDy=0;entryX=0.75;entryY=1;entryDx=0;entryDy=0;" edge="1" parent="1" source="3axxUkgNKy4wt6qZ3K-I-22" target="3axxUkgNKy4wt6qZ3K-I-19">
          <mxGeometry relative="1" as="geometry" />
        </mxCell>
        <mxCell id="3axxUkgNKy4wt6qZ3K-I-22" value="A类设备实例3" style="rounded=0;whiteSpace=wrap;html=1;" vertex="1" parent="1">
          <mxGeometry x="337" y="437" width="90" height="36" as="geometry" />
        </mxCell>
        <mxCell id="3axxUkgNKy4wt6qZ3K-I-23" value="A类设备的核心层" style="rounded=0;whiteSpace=wrap;html=1;" vertex="1" parent="1">
          <mxGeometry x="218" y="513" width="115" height="39" as="geometry" />
        </mxCell>
        <mxCell id="3axxUkgNKy4wt6qZ3K-I-33" style="rounded=0;orthogonalLoop=1;jettySize=auto;html=1;entryX=0.25;entryY=1;entryDx=0;entryDy=0;" edge="1" parent="1" target="3axxUkgNKy4wt6qZ3K-I-23">
          <mxGeometry relative="1" as="geometry">
            <mxPoint x="185" y="569" as="sourcePoint" />
          </mxGeometry>
        </mxCell>
        <mxCell id="3axxUkgNKy4wt6qZ3K-I-24" value="A类设备子类1的核心层" style="rounded=0;whiteSpace=wrap;html=1;" vertex="1" parent="1">
          <mxGeometry x="121" y="569" width="128" height="38" as="geometry" />
        </mxCell>
        <mxCell id="3axxUkgNKy4wt6qZ3K-I-35" style="rounded=0;orthogonalLoop=1;jettySize=auto;html=1;exitX=0.5;exitY=0;exitDx=0;exitDy=0;entryX=0.75;entryY=1;entryDx=0;entryDy=0;" edge="1" parent="1" source="3axxUkgNKy4wt6qZ3K-I-25" target="3axxUkgNKy4wt6qZ3K-I-23">
          <mxGeometry relative="1" as="geometry" />
        </mxCell>
        <mxCell id="3axxUkgNKy4wt6qZ3K-I-25" value="A类设备子类2的核心层" style="rounded=0;whiteSpace=wrap;html=1;" vertex="1" parent="1">
          <mxGeometry x="303" y="569" width="128" height="38" as="geometry" />
        </mxCell>
        <mxCell id="3axxUkgNKy4wt6qZ3K-I-31" style="rounded=0;orthogonalLoop=1;jettySize=auto;html=1;exitX=0.5;exitY=0;exitDx=0;exitDy=0;entryX=0.75;entryY=1;entryDx=0;entryDy=0;" edge="1" parent="1" source="3axxUkgNKy4wt6qZ3K-I-27" target="3axxUkgNKy4wt6qZ3K-I-24">
          <mxGeometry relative="1" as="geometry" />
        </mxCell>
        <mxCell id="3axxUkgNKy4wt6qZ3K-I-27" value="A类设备子类1的实例2" style="rounded=0;whiteSpace=wrap;html=1;" vertex="1" parent="1">
          <mxGeometry x="199" y="635" width="128" height="38" as="geometry" />
        </mxCell>
        <mxCell id="3axxUkgNKy4wt6qZ3K-I-30" style="rounded=0;orthogonalLoop=1;jettySize=auto;html=1;exitX=0.5;exitY=0;exitDx=0;exitDy=0;" edge="1" parent="1" source="3axxUkgNKy4wt6qZ3K-I-28" target="3axxUkgNKy4wt6qZ3K-I-24">
          <mxGeometry relative="1" as="geometry" />
        </mxCell>
        <mxCell id="3axxUkgNKy4wt6qZ3K-I-28" value="A类设备子类1的实例1" style="rounded=0;whiteSpace=wrap;html=1;" vertex="1" parent="1">
          <mxGeometry x="53" y="635" width="128" height="38" as="geometry" />
        </mxCell>
        <mxCell id="3axxUkgNKy4wt6qZ3K-I-32" style="rounded=0;orthogonalLoop=1;jettySize=auto;html=1;exitX=0.5;exitY=0;exitDx=0;exitDy=0;entryX=0.5;entryY=1;entryDx=0;entryDy=0;" edge="1" parent="1" source="3axxUkgNKy4wt6qZ3K-I-29" target="3axxUkgNKy4wt6qZ3K-I-25">
          <mxGeometry relative="1" as="geometry" />
        </mxCell>
        <mxCell id="3axxUkgNKy4wt6qZ3K-I-29" value="A类设备子类2的实例1" style="rounded=0;whiteSpace=wrap;html=1;" vertex="1" parent="1">
          <mxGeometry x="350" y="635" width="128" height="38" as="geometry" />
        </mxCell>
        <mxCell id="3axxUkgNKy4wt6qZ3K-I-39" value="a)" style="text;html=1;align=center;verticalAlign=middle;whiteSpace=wrap;rounded=0;" vertex="1" parent="1">
          <mxGeometry x="246" y="471" width="60" height="30" as="geometry" />
        </mxCell>
        <mxCell id="3axxUkgNKy4wt6qZ3K-I-40" value="b)" style="text;html=1;align=center;verticalAlign=middle;whiteSpace=wrap;rounded=0;" vertex="1" parent="1">
          <mxGeometry x="245.5" y="673" width="60" height="30" as="geometry" />
        </mxCell>
      </root>
    </mxGraphModel>
  </diagram>
</mxfile>
